<?xml version="1.0" encoding="utf-8"?><svg viewBox="0 0 22 22" xmlns="http://www.w3.org/2000/svg" xmlns:xlink="http://www.w3.org/1999/xlink"><style>:root>svg{display:none}:root>svg:target{display:block}</style><svg fill="none" viewBox="0 0 14 10" id="icon-brackets" xmlns="http://www.w3.org/2000/svg"><path d="M4.5 8.333L1.167 5 4.5 1.667m5 0L12.833 5 9.5 8.333"/></svg><svg fill="none" viewBox="0 0 22 22" id="icon-drop" xmlns="http://www.w3.org/2000/svg"><path d="M18.778 1v4.444M21 3.222h-4.444" stroke="#000" stroke-width="2" stroke-linecap="round"/><path d="M12.389 4.222a1 1 0 100-2v2zm7.389 5.39a1 1 0 10-2 0h2zm-5.596 7.928a1 1 0 101.414-1.414l-1.414 1.414zm.596 2.46H5v2h9.778v-2zM5 4.222h7.389v-2H5v2zm12.778 5.39V17h2V9.611h-2zM2 17v-.722H0V17h2zm0-.722V7.222H0v9.056h2zm-.293.707l3.838-3.838-1.414-1.415-3.838 3.839 1.414 1.414zm8.081-3.838a.577.577 0 00.008.008l.008.008.009.008.008.009a.636.636 0 00.008.008l.008.008.009.008.008.008.008.009.008.008.009.008.008.009a.649.649 0 01.008.008l.008.008a.59.59 0 00.017.017l.008.008a.65.65 0 01.009.008l.008.009.008.008.009.008.008.009.008.008a37062301200.856 37062301200.856 0 00.017.017l.008.008.009.008.008.009.008.008.009.009a.653.653 0 01.008.008l.009.008.008.009.008.008.009.008.008.009.009.008.008.009.009.008.008.009.008.008a.677.677 0 00.017.017l.009.008a.34.34 0 01.008.009l.009.008.008.009a.34.34 0 01.009.008l.008.009a.34.34 0 00.009.008l.008.009.008.008.009.009.008.008.009.009.009.008.008.009a.34.34 0 00.009.008l.008.009.009.008.008.009a.34.34 0 00.009.008l.008.009.009.008.008.009.009.008.008.01.009.008.009.008.008.009.009.008.008.009.009.008a.349.349 0 00.009.01l.008.008.009.008.008.009.009.008.008.01a.349.349 0 00.018.016l.008.009a.349.349 0 01.009.009l.009.008a.349.349 0 00.008.009l.009.008.009.01a.701.701 0 00.008.008l.009.008.008.01.01.008a.701.701 0 00.008.008l.008.009.009.009.009.008a.701.701 0 00.008.009l.01.009.008.008.008.01.01.008.008.008.008.01a20086274585.052 20086274585.052 0 01.027.025l.008.009a.726.726 0 00.009.009l.009.008a40184295529.523 40184295529.523 0 00.017.018l.009.008a.726.726 0 01.017.018l.01.009.008.008a.726.726 0 00.017.018l.009.009a.726.726 0 00.009.008l.008.01.01.008.008.009.009.008.008.01.01.008a.365.365 0 00.008.009l.009.008.009.01a.365.365 0 00.008.008l.01.009a.365.365 0 01.008.009l.009.008.009.01a.365.365 0 00.017.017l.009.008.009.01.008.008.01.009.008.009.009.008.009.01.008.008.01.009a.365.365 0 00.017.018l.009.008.008.01.01.008.008.009a.365.365 0 00.009.009l.009.008.009.01.008.008.01.009.008.009.009.009.009.008.009.01.008.008.01.009.008.009.009.009.009.008.009.01.009.008.008.01.01.008.008.009.009.009.009.008.009.01.009.008.008.01.01.008.008.009.009.009.009.009.009.008.009.01.008.008.01.009a.373.373 0 00.008.009l.01.009.008.009.009.009.009.008.009.01.008.008.01.01.008.008.01.009a.373.373 0 00.008.009l.009.009.009.009.009.008.009.01.008.008.01.009.008.009a.373.373 0 00.018.018l.009.009.009.009.009.008.009.01a.373.373 0 01.017.017l.01.009.008.009.01.009.008.009.009.009.009.008.009.01a.373.373 0 00.026.026.373.373 0 00.027.027.373.373 0 00.027.026l.009.01.009.008.009.01.008.008.01.009.008.009.009.009.009.009.009.008.009.01.009.008a.373.373 0 01.017.018l.01.009.008.009.01.009.008.009.009.008a.373.373 0 00.027.027l.008.01.01.008.008.009.01.009.008.009.009.009.009.008a.373.373 0 00.009.01l.009.008.008.01.01.008.008.009.01.009a.373.373 0 00.008.009l.009.008.009.01.009.008.008.01a.373.373 0 00.01.008l.008.009.01.009.008.009.009.008.009.01.009.008.008.01.01.008.008.009.009.009.009.009.009.008.009.01.008.008.01.009.008.009.009.009.009.008.009.01.009.008.008.01.01.008.008.009.009.009.009.008.009.01.008.008.01.009.008.009.009.009.009.008.009.01.008.008.01.009a.365.365 0 00.008.009l.009.009.009.008.008.01.01.008.008.009.009.009a.365.365 0 00.026.026.365.365 0 00.018.018l.009.008.008.01.01.008a.365.365 0 01.008.009l.009.009.009.008a.365.365 0 00.008.01l.01.008a.365.365 0 01.008.009l.009.008a.726.726 0 00.017.018l.01.009.008.008.009.01.008.008a.365.365 0 01.01.009l.008.009.009.008.008.009.01.009.008.009a20086274585.052 20086274585.052 0 01.026.026l.009.008.008.01.01.008.008.009.009.008.008.009.009.009.009.008.008.01.01.008.008.008.008.01.01.008a.701.701 0 01.008.009l.008.008a40184295529.523 40184295529.523 0 01.018.018l.008.008.01.009.008.009a.701.701 0 00.008.008l.01.009.008.009.008.008a.701.701 0 00.026.026l.009.009a.349.349 0 01.009.008l.008.009a.349.349 0 00.009.009l.008.008.01.009.008.008a.349.349 0 01.017.018l.008.008.01.009.008.008.008.009a.349.349 0 00.009.008l.008.01.009.008.009.008.008.009.009.008.008.009.009.008.008.009.009.009.008.008.009.009.008.008a.34.34 0 00.009.009l.008.008.009.009.008.008a.34.34 0 01.026.026l.008.008.009.009a.34.34 0 00.009.008l.008.009a.34.34 0 01.008.008l.009.008a.677.677 0 00.017.017l.008.009.009.008.008.009.009.008a.677.677 0 01.025.026l.008.008a37438852301.906 37438852301.906 0 01.042.042l.009.008.008.009a.653.653 0 00.017.016l.008.009.009.008.008.009.008.008.008.008a.325.325 0 01.017.017l.008.008.009.008a.325.325 0 01.008.009l.008.008.009.008.008.009a.325.325 0 01.008.008l.009.008.008.008.008.009.008.008.009.008.008.009.008.008.008.008.009.008a.317.317 0 00.008.009l.008.008.008.008.008.008.009.008.008.009.008.008a.317.317 0 01.008.008l.008.008a.63.63 0 00.033.033l.008.008a17411666157.387 17411666157.387 0 01.017.016l.008.008.008.009.008.008.008.008.008.008.008.008.008.008.008.008.009.008.008.008a.607.607 0 01.008.008l.008.008.008.008a.607.607 0 00.008.008l.008.009.008.008a.607.607 0 00.016.016l.008.008.008.008.008.008a.302.302 0 00.008.008l.008.008.008.008.008.007.008.008.008.008.008.008.008.008.008.008.007.008.008.008.008.008.008.008.008.008a.294.294 0 01.008.008l.008.008.008.007.008.008.007.008.008.008.008.008.008.008.008.007.008.008.007.008.008.008.008.008.008.007.008.008.007.008.008.008.008.007 1.414-1.414-.008-.008a.563.563 0 00-.007-.007l-.008-.008-.008-.008a.563.563 0 01-.016-.015l-.007-.008-.008-.008a.585.585 0 01-.008-.008l-.008-.008-.008-.007-.008-.008-.007-.008-.008-.008-.008-.008-.008-.008a.585.585 0 00-.016-.016l-.008-.007-.007-.008-.008-.008a.592.592 0 00-.008-.008l-.008-.008-.008-.008-.008-.008-.008-.008-.008-.008-.008-.008-.008-.008-.008-.008-.008-.008-.008-.008-.008-.008-.008-.008-.008-.008-.008-.008-.008-.008-.008-.008-.008-.008-.008-.008-.008-.008a.302.302 0 01-.008-.008l-.008-.008-.008-.008-.008-.008-.008-.008-.008-.008-.009-.008-.008-.008-.008-.009a.63.63 0 00-.008-.008l-.008-.008a.63.63 0 00-.008-.008l-.008-.008a.317.317 0 01-.008-.008l-.009-.008-.008-.009-.008-.008-.008-.008-.008-.008-.008-.008a.317.317 0 00-.017-.017l-.008-.008a.638.638 0 00-.025-.024l-.008-.009-.008-.008-.008-.008-.009-.008-.008-.009-.008-.008-.008-.008-.009-.008-.008-.009-.008-.008-.008-.008a.325.325 0 00-.025-.025.325.325 0 00-.017-.017l-.008-.008-.009-.008-.008-.009-.008-.008-.009-.008-.008-.009a.653.653 0 00-.008-.008l-.009-.008-.008-.009-.008-.008-.009-.008-.008-.009-.008-.008-.009-.009-.008-.008-.009-.008-.008-.009-.008-.008-.009-.009-.008-.008-.009-.009-.008-.008-.009-.008-.008-.009a18725093552.155 18725093552.155 0 01-.017-.017l-.008-.008-.009-.009a.677.677 0 00-.017-.017l-.008-.008-.009-.009-.008-.008-.009-.008a.34.34 0 00-.025-.026.34.34 0 00-.017-.017l-.009-.009-.008-.008-.009-.009a.685.685 0 00-.008-.008l-.009-.009-.008-.008-.009-.009-.009-.008-.008-.009-.009-.008-.008-.009-.009-.009a.693.693 0 00-.008-.008l-.009-.009-.008-.008-.01-.009-.008-.008-.008-.009a.349.349 0 00-.026-.026.349.349 0 00-.009-.008l-.008-.01-.009-.008-.008-.008-.01-.009a.701.701 0 00-.016-.017l-.009-.009a.701.701 0 00-.009-.008l-.008-.01-.009-.008-.009-.008-.008-.009-.009-.009-.009-.008a.349.349 0 01-.026-.026l-.008-.009-.009-.009-.009-.008-.008-.01-.009-.008-.009-.008-.008-.01-.01-.008-.008-.009-.008-.008-.01-.009-.008-.009-.009-.008-.008-.01a.726.726 0 01-.01-.008l-.008-.009-.008-.008-.01-.009a.365.365 0 01-.008-.009l-.009-.008a.726.726 0 00-.008-.01l-.01-.008-.008-.009a.365.365 0 01-.009-.008l-.008-.01a.365.365 0 01-.018-.017l-.009-.008-.008-.01-.01-.008-.008-.009-.009-.008a.365.365 0 00-.009-.01l-.008-.008a.365.365 0 01-.01-.009l-.008-.009a.726.726 0 00-.026-.026l-.009-.009-.009-.009-.009-.008-.008-.01-.01-.008-.008-.009-.009-.009-.009-.008-.008-.01-.01-.008a.365.365 0 00-.008-.009l-.009-.009-.009-.009-.008-.008-.01-.01a.734.734 0 00-.008-.008l-.009-.009-.009-.009-.009-.008-.008-.01-.01-.008-.008-.009-.009-.009-.009-.009-.009-.008-.008-.01-.01-.008-.008-.009-.009-.009-.009-.009-.009-.008-.009-.01-.008-.008-.01-.01-.008-.008-.009-.009-.009-.009-.009-.009-.009-.008-.009-.01a.743.743 0 00-.008-.008l-.01-.009-.008-.009a.743.743 0 00-.009-.009l-.009-.009-.009-.008-.009-.01-.008-.008-.01-.01-.008-.008-.01-.009a.743.743 0 00-.008-.009l-.009-.009-.009-.008-.009-.01-.008-.008-.01-.01-.008-.008-.01-.009-.008-.009-.009-.009-.009-.008a.373.373 0 00-.018-.018l-.008-.01-.01-.008-.008-.009-.01-.009-.008-.009-.009-.009-.009-.009-.009-.008-.009-.01-.008-.008a.373.373 0 00-.027-.027.373.373 0 00-.027-.027l-.009-.008-.009-.01-.008-.008-.01-.01-.008-.008-.01-.009-.008-.009-.009-.009-.009-.009-.009-.009-.009-.008-.009-.01-.008-.008-.01-.01-.008-.008-.01-.009-.008-.009-.009-.009-.009-.009-.009-.009-.009-.008-.009-.01a.743.743 0 00-.044-.044l-.009-.009-.009-.009-.009-.008-.009-.01-.008-.008-.01-.01-.008-.008-.01-.009a.373.373 0 00-.008-.009l-.009-.009-.009-.009-.009-.008-.009-.01-.008-.008-.01-.01a.373.373 0 00-.008-.008l-.01-.009-.008-.009-.009-.009-.009-.008-.009-.01-.008-.008-.01-.01-.008-.008a.743.743 0 00-.01-.009l-.008-.009-.009-.009a.743.743 0 00-.009-.008l-.009-.01-.008-.008-.01-.01-.008-.008-.01-.009-.008-.009-.009-.009a.743.743 0 00-.009-.008l-.008-.01-.01-.008-.008-.009-.01-.009-.008-.009-.009-.008-.009-.01-.008-.008-.01-.01a41081440189.786 41081440189.786 0 00-.017-.017l-.009-.009-.009-.008-.008-.01-.01-.008-.008-.009a.734.734 0 00-.009-.009l-.009-.009-.009-.008-.008-.01-.01-.008a.734.734 0 00-.008-.009l-.009-.009-.009-.008-.008-.01-.01-.008-.008-.009-.009-.009-.009-.008a.365.365 0 00-.017-.018l-.01-.009-.008-.009-.009-.008-.008-.01-.01-.008-.008-.009a.726.726 0 00-.009-.009l-.009-.008-.008-.01-.01-.008a.726.726 0 00-.008-.009l-.009-.008a.365.365 0 01-.008-.01l-.01-.008a.726.726 0 00-.008-.009l-.009-.008a.726.726 0 00-.017-.018l-.009-.009a.726.726 0 01-.009-.008l-.008-.01-.01-.008-.008-.009-.009-.009-.008-.008-.01-.009-.008-.009-.009-.008-.008-.01-.01-.008-.008-.009-.008-.008-.01-.009-.008-.009-.009-.008-.008-.01-.009-.008-.009-.008a.701.701 0 01-.017-.018l-.009-.008-.008-.01-.01-.008a.701.701 0 01-.025-.026l-.009-.008a.701.701 0 00-.008-.01l-.009-.008a.701.701 0 00-.009-.008l-.008-.01-.009-.008-.009-.008-.008-.009-.009-.009a.349.349 0 00-.008-.008l-.01-.009-.008-.008-.008-.01-.009-.008-.008-.008-.01-.009-.008-.008-.008-.01-.009-.008-.009-.008-.008-.009a.349.349 0 00-.009-.008l-.008-.009-.009-.009-.008-.008-.009-.009-.008-.008-.009-.009-.009-.008-.008-.009-.009-.008-.008-.009-.009-.008-.008-.009-.009-.008-.008-.009-.009-.008a.34.34 0 00-.025-.026l-.009-.008-.008-.009-.009-.008-.008-.009-.009-.008-.008-.009-.009-.008-.008-.009a.34.34 0 01-.009-.008l-.008-.009-.008-.008a.677.677 0 00-.017-.017l-.009-.008-.008-.009-.008-.008-.009-.009-.008-.008-.009-.008-.008-.009-.008-.008-.009-.009-.008-.008-.009-.008-.008-.009-.008-.008-.009-.008-.008-.009-.008-.008-.009-.008-.008-.009-.008-.008a.653.653 0 00-.017-.017l-.008-.008-.009-.008-.008-.009-.008-.008-.009-.008-.008-.009a.646.646 0 00-.008-.008l-.008-.008-.009-.008-.008-.009-.008-.008-.008-.008-.009-.008-.008-.009-.008-.008-.008-.008-.009-.008-.008-.009-1.414 1.415zM5 20a3 3 0 01-3-3H0a5 5 0 005 5v-2zm.545-6.853a3 3 0 014.243 0l1.414-1.415a5 5 0 00-7.07 0l1.413 1.415zM14.778 22a5 5 0 005-5h-2a3 3 0 01-3 3v2zM5 2.222a5 5 0 00-5 5h2a3 3 0 013-3v-2z" fill="#000"/><path d="M18.778 14.611l-.505-.505a4 4 0 00-5.657 0l-.227.227" stroke="#000" stroke-width="2" stroke-linecap="round"/><circle cx="12.111" cy="7.667" r=".556" fill="#000"/></svg><svg fill="none" viewBox="0 0 20 20" id="icon-eye" xmlns="http://www.w3.org/2000/svg"><path d="M11.768 11.768A2.5 2.5 0 108.23 8.232a2.5 2.5 0 003.537 3.536z"/><path d="M2.048 10a8.337 8.337 0 0115.904 0 8.336 8.336 0 01-15.904 0z"/></svg></svg>